<?xml version="1.0" encoding="UTF-8"?>
<svg width="14px" height="14px" viewBox="0 0 14 14" version="1.1" xmlns="http://www.w3.org/2000/svg" xmlns:xlink="http://www.w3.org/1999/xlink">
    <!-- Generator: sketchtool 52.2 (67145) - http://www.bohemiancoding.com/sketch -->
    <title>6B543EC2-B43E-44FB-AA97-7008CC121162</title>
    <desc>Created with sketchtool.</desc>
    <g id="Assets" stroke="none" stroke-width="1" fill="none" fill-rule="evenodd">
        <g id="LimparAndroid" transform="translate(-8.000000, -6.000000)">
            <g id="Group-3" transform="translate(8.000000, 6.000000)">
                <g id="Group">
                    <circle id="Oval-5" fill="#5500B4" fill-rule="nonzero" cx="6.72" cy="6.72" r="6.72"></circle>
                    <path d="M8.92288,8.57856 C9.03552056,8.70656064 9.09184,8.84735923 9.09184,9.00096 C9.09184,9.17504087 9.02400068,9.32735935 8.88832,9.45792 C8.75263932,9.58848065 8.60032084,9.65376 8.43136,9.65376 C8.2521591,9.65376 8.09600067,9.57696077 7.96288,9.42336 L6.64192,7.84128 L5.29792,9.42336 C5.16479933,9.57696077 5.01120087,9.65376 4.83712,9.65376 C4.66815916,9.65376 4.51584068,9.58720067 4.38016,9.45408 C4.24447932,9.32095933 4.17664,9.16736087 4.17664,8.99328 C4.17664,8.84479926 4.23039946,8.70656064 4.33792,8.57856 L5.81248,6.8736 L4.37632,5.20704 C4.26367944,5.07391933 4.20736,4.93568072 4.20736,4.79232 C4.20736,4.61823913 4.27519932,4.46592065 4.41088,4.33536 C4.54656068,4.20479935 4.70143913,4.13952 4.87552,4.13952 C5.0547209,4.13952 5.21087933,4.21631923 5.344,4.36992 L6.64192,5.90592 L7.93216,4.36992 C8.05504061,4.21631923 8.2060791,4.13952 8.38528,4.13952 C8.55936087,4.13952 8.71423932,4.20479935 8.84992,4.33536 C8.98560068,4.46592065 9.05344,4.61823913 9.05344,4.79232 C9.05344,4.94080074 8.99968054,5.07903936 8.89216,5.20704 L7.456,6.8736 L8.92288,8.57856 Z" id="X" fill="#FFFFFF"></path>
                </g>
            </g>
        </g>
    </g>
</svg>